<svg width="96" height="20" viewBox="0 0 96 20" fill="none" xmlns="http://www.w3.org/2000/svg">
<g clip-path="url(#clip0_55539_45773)">
<path fill-rule="evenodd" clip-rule="evenodd" d="M56.7031 6.62598V19.9923H67.7816L69.1292 16.9558V16.9372H59.7693V14.8367H67.2128V11.7816H59.7693V9.68108H67.7877L69.1292 6.62598H56.7031Z" fill="black" fill-opacity="0.05"/>
<path fill-rule="evenodd" clip-rule="evenodd" d="M52.4387 6.63379L48.6894 15.0701L44.9402 6.63379H41.5029L47.4435 20.0001H49.9351L55.8757 6.63379H52.4387Z" fill="black" fill-opacity="0.05"/>
<path fill-rule="evenodd" clip-rule="evenodd" d="M82.3326 15.8948C82.3326 17.028 81.9302 17.9953 81.1253 18.7973C80.3204 19.5992 79.3494 20.0002 78.2124 20.0002H69.1738L70.5388 16.9451H78.2124C78.5062 16.9451 78.7554 16.8432 78.9599 16.6395C79.1641 16.436 79.2665 16.1878 79.2665 15.8948C79.2665 15.6021 79.1641 15.3539 78.9599 15.15C78.7554 14.9467 78.5062 14.8445 78.2124 14.8445H73.9964C72.8591 14.8445 71.8883 14.4436 71.0834 13.6417C70.2786 12.8396 69.8761 11.8724 69.8761 10.7391C69.8761 9.60632 70.2786 8.63877 71.0834 7.83681C71.8883 7.03477 72.8591 6.63379 73.9964 6.63379H82.3326L80.9715 9.68897H73.9964C73.7023 9.68897 73.4532 9.791 73.249 9.99453C73.0445 10.1983 72.9424 10.4465 72.9424 10.7391C72.9424 11.0321 73.0445 11.2804 73.249 11.484C73.4532 11.6876 73.7023 11.7894 73.9964 11.7894H78.2124C79.3494 11.7894 80.3204 12.1903 81.1253 12.9924C81.9302 13.7943 82.3326 14.7619 82.3326 15.8948Z" fill="black" fill-opacity="0.05"/>
<path fill-rule="evenodd" clip-rule="evenodd" d="M95.5559 6.63379L94.2144 9.68889H90.8607V20.0001H87.7945V9.68889H82.4009L83.762 6.63379H95.5559Z" fill="black" fill-opacity="0.05"/>
<path d="M22.5684 6.33789L27.7207 1.52734L27.0029 0.745117L30.3438 0.00976562L29.3115 3.26074L28.5059 2.38281L21.4062 9.00879V2.5791L1.74902 20H0L22.5684 0V6.33789Z" fill="black" fill-opacity="0.05"/>
<path fill-rule="evenodd" clip-rule="evenodd" d="M21.3877 11.4717V19.9998H26.6295V6.61816L21.3877 11.4717Z" fill="black" fill-opacity="0.05"/>
<path fill-rule="evenodd" clip-rule="evenodd" d="M19.6752 19.9998V6.61816L4.16748 19.9998H19.6752Z" fill="black" fill-opacity="0.05"/>
<path fill-rule="evenodd" clip-rule="evenodd" d="M37.6877 6.63379L37.6888 14.8014L30.9435 6.63912L30.95 6.63379H28.2974V20.0001H31.3634V11.9199L38.0407 20.0001H40.7539V6.63379H37.6877Z" fill="black" fill-opacity="0.05"/>
</g>
<defs>
<clipPath id="clip0_55539_45773">
<rect width="95.5557" height="20" fill="white"/>
</clipPath>
</defs>
</svg>
