<svg width="36" height="10" viewBox="0 0 36 10" fill="none" xmlns="http://www.w3.org/2000/svg">
<path fill-rule="evenodd" clip-rule="evenodd" d="M9.11109 3.1202L9.21738 2.32112C9.24031 2.13872 9.14652 2.07792 8.95894 2.07792H3.41297C3.2254 2.07792 3.11911 2.13872 3.09618 2.32112L2.98989 3.1202C2.96696 3.31562 3.08368 3.37642 3.24833 3.37642H8.79429C8.95894 3.38076 9.08816 3.31562 9.11109 3.1202ZM10.3915 0.00416344H2.48855C1.82814 0.00026955 1.26133 0.476185 1.14723 1.13037L0.00463053 9.71331C-0.0181387 9.87777 0.0398193 9.99434 0.250952 9.99434H1.10169C1.30869 9.99434 1.39355 9.89026 1.42874 9.70082L2.5258 1.44263C2.53989 1.32071 2.64861 1.23268 2.77006 1.24487H9.78298C9.92373 1.24487 9.96927 1.31357 9.98997 1.39683L9.0378 8.32688H9.05022L8.86186 9.71747C8.83909 9.88193 8.89705 9.99851 9.10818 9.99851H9.95892C10.0407 10.0069 10.122 9.97953 10.1823 9.92334C10.2425 9.86714 10.2758 9.78758 10.2736 9.70498L10.4619 8.32688L10.4847 8.16243L11.3354 1.82775L11.3955 1.41141L11.4286 1.13037V0.94302C11.4058 0.439243 11.0436 0.0166538 10.3915 1.61184e-10V0.00416344ZM7.98642 4.03011H3.719C3.43529 4.00498 3.18466 4.21396 3.15843 4.49755L3.06534 5.17388L2.46753 9.61039H6.72461C7.24795 9.61039 7.57478 9.48215 7.68028 9.22569C7.76554 9.04017 7.82805 8.84502 7.86645 8.64449L8.42495 4.56787L8.43736 4.49755C8.46632 4.21212 8.34842 4.03838 7.98642 4.02597V4.03011ZM6.52418 7.88975C6.51882 8.01515 6.46938 8.13455 6.38471 8.22662C6.28956 8.29142 6.17492 8.32066 6.06064 8.30928H4.02597L4.45465 5.19481H6.88312L6.52418 7.88975ZM33.8888 8.7516H33.6852V8.74742C33.5399 8.75336 33.3951 8.72548 33.2618 8.66588C32.9055 8.50072 32.5614 7.77526 32.3436 7.44493C32.5146 6.06718 32.6653 5.10966 32.8363 3.74445C32.8587 3.58974 32.8017 3.50821 32.6327 3.50821H31.9324C31.8274 3.49508 31.7276 3.55849 31.6921 3.66083C31.6821 3.68793 31.6746 3.71592 31.6697 3.74445C31.4865 5.10966 31.3481 6.06718 31.1648 7.44493C30.8778 7.79825 30.5093 8.3481 30.1469 8.63034C29.9433 8.78296 29.585 8.73696 29.3773 8.73696H29.3326C29.1848 8.7308 29.0584 8.84494 29.0455 8.99621L28.9641 9.74885C28.9417 9.93701 29.0455 9.99555 29.2165 9.99555H29.9168C30.1781 10.0164 30.44 9.96365 30.6742 9.84293C30.8592 9.70922 31.0256 9.55027 31.1689 9.37044L31.6514 8.67843L31.6962 8.74742L32.0749 9.50006C32.2629 9.83253 32.6197 10.0251 32.993 9.99555H33.7382C33.9112 9.99555 34.0374 9.93701 34.0598 9.74885L34.1514 8.99621C34.1779 8.81641 34.0843 8.74742 33.8909 8.74742L33.8888 8.7516ZM35.2262 0.00418669H30.5772C30.4986 -0.00334161 30.4202 0.0213314 30.3601 0.0725905C30.2999 0.12385 30.2629 0.197335 30.2576 0.276322L30.1637 0.990152C30.1407 1.19949 30.2472 1.26019 30.3997 1.26019H32.0015L31.9305 1.8882H31.1181C30.5289 1.89038 30.0246 2.31234 29.9172 2.893L29.9047 2.99767L29.8337 3.50635L29.3178 7.22413L29.2364 7.8019L29.2238 7.93169C29.2113 8.03845 29.2364 8.12009 29.3178 8.15567C29.3533 8.16823 29.3888 8.16823 29.4348 8.18079H30.1783C30.2508 8.18727 30.3228 8.16281 30.3764 8.11341C30.4301 8.06401 30.4605 7.99424 30.4602 7.92122L31.1411 3.13164C31.1518 3.02428 31.2423 2.9427 31.3499 2.94324H33.5157C33.6556 2.9558 33.6911 3.02698 33.6807 3.13164L33.0541 7.93169C33.0312 8.07403 33.0771 8.16823 33.263 8.18079H34.0044C34.077 8.18727 34.1489 8.16281 34.2026 8.11341C34.2562 8.06401 34.2866 7.99424 34.2864 7.92122L34.2989 7.86051L34.8962 3.50635L34.9672 2.92859V2.893C35.0278 2.37385 34.6978 1.91332 34.0504 1.8882H33.215V1.88401H33.1795L33.2484 1.25601H35.0382C35.1156 1.26556 35.1935 1.24153 35.2521 1.18995C35.3107 1.13837 35.3446 1.06416 35.3452 0.985966L35.4392 0.272135C35.4935 0.0816405 35.3995 1.61184e-10 35.222 1.61184e-10L35.2262 0.00418669ZM12.3264 2.3513H13.9516L13.9287 2.50656L13.9059 2.66182C13.881 2.85324 13.9412 2.98511 14.1861 2.98511H15.1678C15.2615 2.99519 15.3552 2.96498 15.4264 2.9017C15.4976 2.83841 15.54 2.74771 15.5435 2.65119C15.5435 2.50656 15.5663 2.48317 15.5788 2.3513H19.3458L19.3209 2.50656L19.2981 2.65119C19.2753 2.86388 19.3458 2.98511 19.5907 2.98511H20.5849C20.6787 2.99519 20.7723 2.96498 20.8435 2.9017C20.9147 2.83841 20.9571 2.74771 20.9606 2.65119L20.9834 2.50656H20.971L20.9938 2.3513H23.0693C23.1219 2.35196 23.1739 2.33956 23.2208 2.31515C23.3172 2.26858 23.3803 2.17109 23.3848 2.06205L23.5031 1.36869C23.5259 1.15601 23.4325 1.08156 23.2457 1.08156H21.1868V1.05604L21.2802 0.358432C21.3155 0.145745 21.2325 0.0117529 20.998 0.0117529H20.0038C19.9083 0.00215781 19.8132 0.0343296 19.7421 0.100345C19.6709 0.16636 19.6303 0.260083 19.6302 0.358432L19.5368 1.05604V1.07093H15.7697L15.8631 0.347797C15.8859 0.120223 15.8154 0.00111856 15.5829 0.00111856H14.5991C14.5068 -0.00651992 14.4155 0.0252071 14.3467 0.0888131C14.278 0.152419 14.2379 0.24227 14.2359 0.337163L14.1425 1.03477V1.07093H12.5277C12.4463 1.05932 12.3639 1.08415 12.3015 1.13909C12.2392 1.19404 12.2029 1.27379 12.2019 1.35806L12.0836 2.06418C12.0525 2.27261 12.1521 2.34705 12.3223 2.34705L12.3264 2.3513ZM29.8646 0.247329C29.8902 0.0829327 29.8284 0.00177481 29.6514 0.00177481H28.8816C28.8103 -0.00671223 28.7387 0.0155084 28.6855 0.0626536C28.6322 0.109799 28.6027 0.177205 28.6044 0.247329L27.7046 6.69834L27.2782 9.75321C27.2547 9.89471 27.3038 9.99876 27.4914 9.99876H28.2611C28.3332 10.0057 28.405 9.98326 28.4595 9.93676C28.514 9.89025 28.5464 9.82382 28.549 9.75321L29.4744 3.00254L29.8646 0.247329ZM22.7185 3.5093H21.7221C21.5382 3.48681 21.3648 3.60136 21.3103 3.78132L20.8986 5.20626C20.8564 5.40388 20.7452 5.57929 20.5856 5.70007C20.3938 5.7947 20.1807 5.83586 19.968 5.81934H18.4116L18.5989 4.50111L18.6792 3.85246C18.7142 3.64322 18.6319 3.51139 18.4013 3.51139H17.4255C17.3323 3.50144 17.2393 3.53148 17.169 3.59426C17.0986 3.65705 17.0572 3.74686 17.0549 3.842L17.0322 3.99474L16.9622 4.50111L16.3817 8.76129C16.3282 9.06558 16.3948 9.37903 16.567 9.63383C16.7419 9.87027 17.1352 10 17.7631 10H22.4385L22.6444 8.74455H18.5475C18.1995 8.74455 18.0369 8.60435 18.0843 8.30932L18.2345 7.06642H20.9624C21.4977 7.06642 21.858 6.91368 22.0309 6.59563C22.1944 6.32915 22.3232 6.04217 22.4138 5.74192C22.6197 4.9175 22.7844 4.55342 22.982 3.72901C23.0088 3.54906 22.9285 3.5093 22.7185 3.5093ZM26.4887 0.247748C26.512 0.0831971 26.4527 0.00196304 26.277 0.00196304H25.5235C25.4515 -0.00695892 25.3792 0.0148003 25.3246 0.0617587C25.27 0.108717 25.2384 0.176397 25.2377 0.247748L24.1519 8.16286L24.1286 8.317C24.0926 8.61069 23.8895 8.75025 23.519 8.75025H23.3074L23.1169 10H23.5571C24.2027 10 24.6557 9.88336 24.8948 9.64799C25.1301 9.39208 25.2781 9.07016 25.3182 8.72733L26.0696 3.25549L26.4887 0.247748ZM28.0471 0.247499C28.0706 0.0831047 28.0107 0.00194817 27.8333 0.00194817H27.0636C26.9907 -0.00692298 26.9174 0.014767 26.862 0.0616095C26.8065 0.108452 26.7741 0.176032 26.7728 0.247499L25.8706 6.6984L25.4601 9.75321C25.4366 9.89472 25.4836 9.99876 25.6739 9.99876H26.435C26.5073 10.0057 26.5793 9.98326 26.6339 9.93676C26.6886 9.89025 26.7211 9.82383 26.7237 9.75321L27.628 3.25029L28.0471 0.247499ZM15.555 3.37662H14.5824C14.3371 3.3862 14.1142 3.52316 13.9935 3.73855L13.3102 4.6775C13.1934 4.86657 13.0355 5.0264 12.8485 5.1449C12.6505 5.22942 12.4376 5.27303 12.2226 5.27313H12.1528C12.0683 5.25961 11.982 5.28194 11.9143 5.33482C11.8467 5.38771 11.8038 5.46643 11.7958 5.55233L11.6911 6.42096C11.6686 6.61743 11.7835 6.68775 11.9681 6.68775H13.068L12.752 9.02891L12.6597 9.67004C12.6371 9.85824 12.6946 9.99681 12.9367 9.99681H13.9196C14.0151 10.0103 14.1116 9.98055 14.1833 9.91552C14.2549 9.85048 14.2944 9.75683 14.291 9.6597L14.3362 9.34534L14.9271 5.01874L15.7828 3.74269C15.9244 3.49658 15.8095 3.37662 15.555 3.37662Z" fill="black" fill-opacity="0.06"/>
</svg>
